{
  "source": "C:\\Users\\Peter\\Desktop\\stuff\\MIUN\\quantitative_research\\video_compression\\videos\\BVI-HD\\Music_1920x1080_30fps.mp4",
  "output": "C:\\Users\\Peter\\Desktop\\stuff\\MIUN\\quantitative_research\\video_compression\\compressed_videos\\BVI-HD\\h264\\12\\Music_1920x1080_30fps_h264.mp4",
  "codec": "h264",
  "ok": "Input #0, mov,mp4,m4a,3gp,3g2,mj2, from 'C:\\Users\\Peter\\Desktop\\stuff\\MIUN\\quantitative_research\\video_compression\\videos\\BVI-HD\\Music_1920x1080_30fps.mp4':\n  Metadata:\n    major_brand     : isom\n    minor_version   : 512\n    compatible_brands: isomiso2avc1mp41\n    encoder         : Lavf54.28.101\n  Duration: 00:00:05.00, start: 0.000000, bitrate: 192710 kb/s\n  Stream #0:0[0x1](und): Video: h264 (High 4:4:4 Predictive) (avc1 / 0x31637661), yuv420p(progressive), 1920x1080, 192707 kb/s, 30 fps, 30 tbr, 30 tbn (default)\n    Metadata:\n      handler_name    : VideoHandler\n      vendor_id       : [0][0][0][0]\n[out#0/mp4 @ 000001fe9f5c9980] Codec AVOption b:a (set bitrate (in bits/s)) has not been used for any stream. The most likely reason is either wrong type (e.g. a video option with no video streams) or that it is a private option of some decoder which was not actually used for any stream.\nStream mapping:\n  Stream #0:0 -> #0:0 (h264 (native) -> h264 (libx264))\nPress [q] to stop, [?] for help\n[libx264 @ 000001fe9fbf0340] using cpu capabilities: MMX2 SSE2Fast SSSE3 SSE4.2 AVX FMA3 BMI2 AVX2\n[libx264 @ 000001fe9fbf0340] profile High, level 5.0, 4:2:0, 8-bit\n[libx264 @ 000001fe9fbf0340] 264 - core 165 r3222 b35605a - H.264/MPEG-4 AVC codec - Copyleft 2003-2025 - http://www.videolan.org/x264.html - options: cabac=1 ref=5 deblock=1:0:0 analyse=0x3:0x113 me=hex subme=8 psy=1 psy_rd=1.00:0.00 mixed_ref=1 me_range=16 chroma_me=1 trellis=2 8x8dct=1 cqm=0 deadzone=21,11 fast_pskip=1 chroma_qp_offset=-2 threads=18 lookahead_threads=3 sliced_threads=0 nr=0 decimate=1 interlaced=0 bluray_compat=0 constrained_intra=0 bframes=3 b_pyramid=2 b_adapt=1 b_bias=0 direct=3 weightb=1 open_gop=0 weightp=2 keyint=250 keyint_min=25 scenecut=40 intra_refresh=0 rc_lookahead=50 rc=cbr mbtree=1 bitrate=12000 ratetol=1.0 qcomp=0.60 qpmin=0 qpmax=69 qpstep=4 vbv_maxrate=12000 vbv_bufsize=12000 nal_hrd=none filler=0 ip_ratio=1.40 aq=1:1.00\nOutput #0, mp4, to 'C:\\Users\\Peter\\Desktop\\stuff\\MIUN\\quantitative_research\\video_compression\\compressed_videos\\BVI-HD\\h264\\12\\Music_1920x1080_30fps_h264.mp4':\n  Metadata:\n    major_brand     : isom\n    minor_version   : 512\n    compatible_brands: isomiso2avc1mp41\n    encoder         : Lavf62.3.100\n  Stream #0:0(und): Video: h264 (avc1 / 0x31637661), yuv420p(tv, progressive), 1920x1080, q=2-31, 12000 kb/s, 30 fps, 15360 tbn (default)\n    Metadata:\n      encoder         : Lavc62.11.100 libx264\n      handler_name    : VideoHandler\n      vendor_id       : [0][0][0][0]\n    Side data:\n      cpb: bitrate max/min/avg: 12000000/0/12000000 buffer size: 12000000 vbv_delay: N/A\nframe=    0 fps=0.0 q=0.0 size=       0KiB time=N/A bitrate=N/A speed=N/A elapsed=0:00:00.51    \nframe=    0 fps=0.0 q=0.0 size=       0KiB time=N/A bitrate=N/A speed=N/A elapsed=0:00:01.07    \nframe=    4 fps=2.5 q=26.0 size=       0KiB time=00:00:00.06 bitrate=   5.8kbits/s speed=0.0409x elapsed=0:00:01.62    \nframe=   13 fps=5.9 q=26.0 size=     512KiB time=00:00:00.36 bitrate=11440.0kbits/s speed=0.168x elapsed=0:00:02.18    \nframe=   23 fps=8.3 q=26.0 size=    1024KiB time=00:00:00.66 bitrate=12583.5kbits/s speed=0.241x elapsed=0:00:02.76    \nframe=   31 fps=9.2 q=27.0 size=    1536KiB time=00:00:00.96 bitrate=13017.2kbits/s speed=0.286x elapsed=0:00:03.37    \nframe=   51 fps= 13 q=25.0 size=    2560KiB time=00:00:01.53 bitrate=13677.3kbits/s speed=0.392x elapsed=0:00:03.91    \nframe=   56 fps= 12 q=25.0 size=    2560KiB time=00:00:01.76 bitrate=11870.9kbits/s speed=0.387x elapsed=0:00:04.56    \nframe=   71 fps= 14 q=25.0 size=    3328KiB time=00:00:02.30 bitrate=11853.6kbits/s speed=0.45x elapsed=0:00:05.10    \nframe=   91 fps= 16 q=25.0 size=    4096KiB time=00:00:02.96 bitrate=11310.6kbits/s speed=0.524x elapsed=0:00:05.65    \nframe=  107 fps= 17 q=25.0 size=    4864KiB time=00:00:03.50 bitrate=11384.6kbits/s speed=0.565x elapsed=0:00:06.19    \nframe=  123 fps= 18 q=24.0 size=    5632KiB time=00:00:03.96 bitrate=11631.4kbits/s speed=0.589x elapsed=0:00:06.73    \nframe=  136 fps= 19 q=-1.0 size=    6144KiB time=00:00:04.46 bitrate=11268.4kbits/s speed=0.615x elapsed=0:00:07.26    \nframe=  146 fps= 19 q=-1.0 size=    6912KiB time=00:00:04.80 bitrate=11796.6kbits/s speed=0.615x elapsed=0:00:07.80    \n[mp4 @ 000001fe9f5c9a80] Starting second pass: moving the moov atom to the beginning of the file\n[out#0/mp4 @ 000001fe9f5c9980] video:7295KiB audio:0KiB subtitle:0KiB other streams:0KiB global headers:0KiB muxing overhead: 0.032330%\nframe=  150 fps= 19 q=-1.0 Lsize=    7297KiB time=00:00:04.93 bitrate=12117.2kbits/s speed=0.624x elapsed=0:00:07.91    \n[libx264 @ 000001fe9fbf0340] frame I:3     Avg QP:18.12  size:126426\n[libx264 @ 000001fe9fbf0340] frame P:70    Avg QP:21.55  size: 60524\n[libx264 @ 000001fe9fbf0340] frame B:77    Avg QP:22.85  size: 37054\n[libx264 @ 000001fe9fbf0340] consecutive B-frames: 31.3%  0.0%  2.0% 66.7%\n[libx264 @ 000001fe9fbf0340] mb I  I16..4: 11.4% 82.4%  6.1%\n[libx264 @ 000001fe9fbf0340] mb P  I16..4:  8.3% 25.4%  1.7%  P16..4: 45.4% 10.6%  5.8%  0.0%  0.0%    skip: 2.8%\n[libx264 @ 000001fe9fbf0340] mb B  I16..4:  0.4%  3.2%  0.3%  B16..8: 44.1% 11.1%  1.8%  direct:10.7%  skip:28.5%  L0:48.9% L1:44.4% BI: 6.7%\n[libx264 @ 000001fe9fbf0340] 8x8 transform intra:73.8% inter:84.9%\n[libx264 @ 000001fe9fbf0340] direct mvs  spatial:98.7% temporal:1.3%\n[libx264 @ 000001fe9fbf0340] coded y,uvDC,uvAC intra: 65.6% 89.3% 39.6% inter: 37.4% 56.9% 2.8%\n[libx264 @ 000001fe9fbf0340] i16 v,h,dc,p: 13%  8%  6% 72%\n[libx264 @ 000001fe9fbf0340] i8 v,h,dc,ddl,ddr,vr,hd,vl,hu:  9%  4%  5% 12% 18% 16% 14% 12% 10%\n[libx264 @ 000001fe9fbf0340] i4 v,h,dc,ddl,ddr,vr,hd,vl,hu:  9%  4%  3% 13% 19% 16% 13% 11% 11%\n[libx264 @ 000001fe9fbf0340] i8c dc,h,v,p: 30% 20% 16% 34%\n[libx264 @ 000001fe9fbf0340] Weighted P-Frames: Y:0.0% UV:0.0%\n[libx264 @ 000001fe9fbf0340] ref P L0: 45.2%  7.9% 21.5% 11.0% 11.4%  3.1%\n[libx264 @ 000001fe9fbf0340] ref B L0: 68.1% 19.0%  8.9%  3.9%\n[libx264 @ 000001fe9fbf0340] ref B L1: 93.2%  6.8%\n[libx264 @ 000001fe9fbf0340] kb/s:11950.50\n",
  "seconds": 8.19640588760376,
  "probe_out": {}
}